<?xml version="1.0" encoding="UTF-8" standalone="no"?>
<svg
   version="1.2"
   viewBox="0 0 210 630"
   width="210"
   height="630"
   id="svg1"
   sodipodi:docname="bt-bonus.svg"
   xml:space="preserve"
   inkscape:version="1.3.1 (91b66b0783, 2023-11-16)"
   xmlns:inkscape="http://www.inkscape.org/namespaces/inkscape"
   xmlns:sodipodi="http://sodipodi.sourceforge.net/DTD/sodipodi-0.dtd"
   xmlns="http://www.w3.org/2000/svg"
   xmlns:svg="http://www.w3.org/2000/svg"><defs
     id="defs1" /><sodipodi:namedview
     id="namedview1"
     pagecolor="#ffffff"
     bordercolor="#000000"
     borderopacity="0.25"
     inkscape:showpageshadow="2"
     inkscape:pageopacity="0.0"
     inkscape:pagecheckerboard="0"
     inkscape:deskcolor="#d1d1d1"
     inkscape:zoom="5.1619048"
     inkscape:cx="29.640221"
     inkscape:cy="67.610701"
     inkscape:window-width="1058"
     inkscape:window-height="1000"
     inkscape:window-x="0"
     inkscape:window-y="0"
     inkscape:window-maximized="0"
     inkscape:current-layer="svg1" /><title
     id="title1">bt-bonus-svg</title><style
     id="style1">
		.s0 { fill: #ffffff } 
	</style><path
     id="Layer"
     fill-rule="evenodd"
     class="s0"
     d="m49.5 31.6v17.2c0 1.3-1 2.3-2.3 2.3h-24.4c-1.3 0-2.3-1-2.3-2.3v-17.3c0-1.3 1-2.3 2.3-2.3h2.6v-5.4c0-4.3 4.1-9.1 9.5-9.1 5.4 0.1 9.5 4.8 9.5 9.1v5.4h2.8c1.3 0 2.3 1.1 2.3 2.4zm-20.6-2.3h12v-5.4c0-2.3-2.3-5.6-6-5.6-3.7 0-6 3.3-6 5.6z" /><path
     id="Camada 4"
     class="s0"
     d="m 35.9,96.5 3.3,0.5 c -4.9,9.5 -8.3,29.9 -8.3,29.9 -4.4,0 -11,-3.6 -11,-3.6 0,0 2.7,-15 16,-26.8 z"
     style="display:none;fill:#FF0000;fill-opacity:1"
     sodipodi:insensitive="true" /><path
     id="Forma 2"
     class="s0"
     d="m 28.9,92.2 c 6.8,0.1 9.2,4.8 9.2,4.8 0,0 -12.4,4.7 -22.9,3.1 0,0 8.2,-8.1 13.7,-7.9 z m 17.4,7.7 c -4.6,-5 -10,-3.8 -10,-3.8 0,0 2.5,10.3 11,18 0,0 2.7,-10.1 -1,-14.2 z"
     style="display:none;fill:#4f4f4f;fill-opacity:1"
     sodipodi:insensitive="true" /><path
     id="Forma 3"
     class="s0"
     d="m 36.1,96.7 c 0,0 3.8,-5.8 10.4,-6.3 6.9,-0.4 13.7,5.1 12.1,5.4 -9.4,2.3 -17.5,2.1 -17.5,2.1 z"
     style="display:none;fill:#4f4f4f;fill-opacity:1"
     sodipodi:insensitive="true" /><path
     id="Forma 3 copy"
     class="s0"
     d="m 39.7,97.9 c 0,0 0.4,-7 -4.7,-11.2 -5.4,-4.5 -13.9,-4.2 -13,-2.8 4.9,7.2 13,12 13,12 z"
     style="display:none;fill:#4f4f4f;fill-opacity:1"
     sodipodi:insensitive="true" /><g
     inkscape:groupmode="layer"
     id="layer2"
     inkscape:label="Layer 1"><path
       style="display:inline;opacity:1;fill:#541717;fill-opacity:1;stroke:#e5275c;stroke-width:1.17012;stroke-opacity:0"
       d="m 46.493281,81.067614 c 5.493771,5.000808 5.541933,6.460538 4.922606,10.095341 -0.619324,3.634806 -3.350568,6.876492 -3.795397,8.864915 -0.444832,1.98842 1.183359,7.32385 0.241777,10.52882 -1.855379,6.31535 -7.18439,6.97495 -8.392545,9.83406 -1.208158,2.85911 1.163874,8.60185 -2.689735,9.03419 -3.853605,0.43234 -10.599157,-1.29773 -8.874653,-6.37832 1.724499,-5.08057 2.070669,-3.39461 3.095738,-6.7349 1.025069,-3.34029 -0.378597,-3.73585 0.622631,-6.99846 1.00123,-3.26261 3.248076,-3.84806 4.062647,-6.23297 0.814565,-2.38493 0.891504,-6.35437 2.037497,-9.064404 1.112468,-2.630752 5.191228,-1.872508 7.940092,-6.743013 0.798733,-1.41521 0.829337,-6.205261 0.829337,-6.205261 z"
       id="path2"
       sodipodi:nodetypes="cssssssssssscc" /><path
       id="path2-0"
       style="fill:#890000;fill-opacity:1;stroke:#e5275c;stroke-width:1.17012;stroke-opacity:0"
       d="m 25.335815,122.3949 c 0.04552,-0.2561 0.110268,-0.52114 0.20383,-0.79677 1.724497,-5.08058 2.071736,-3.39302 3.096805,-6.73331 1.025068,-3.34027 -0.415292,-4.83877 1.677216,-8.15882 1.470914,-2.33381 -1.066504,-4.55909 -1.818507,-7.264975 -1.070433,-2.648208 -3.781526,0.991245 -6.010626,-3.462779 -1.290843,-2.579262 -0.254786,-7.840447 -0.254786,-7.840447 -6.984616,2.466787 -7.701418,7.011487 -7.134,10.654681 0.567416,3.6432 4.049977,4.81723 4.465698,6.81204 0.415725,1.99484 -1.759427,5.51305 -0.866271,8.7322 1.311551,4.72714 4.578954,6.34783 6.640641,8.05818 z"
       sodipodi:nodetypes="sccssssscss" /></g></svg>
