<?xml version="1.0" encoding="UTF-8" standalone="no"?>
<svg
   viewBox="0 0 126 150"
   version="1.1"
   id="svg14"
   sodipodi:docname="switch-casque.svg"
   inkscape:version="1.3.1 (91b66b0783, 2023-11-16)"
   xmlns:inkscape="http://www.inkscape.org/namespaces/inkscape"
   xmlns:sodipodi="http://sodipodi.sourceforge.net/DTD/sodipodi-0.dtd"
   xmlns:xlink="http://www.w3.org/1999/xlink"
   xmlns="http://www.w3.org/2000/svg"
   xmlns:svg="http://www.w3.org/2000/svg">
  <defs
     id="defs14">
    <inkscape:path-effect
       effect="spiro"
       id="path-effect31"
       is_visible="true"
       lpeversion="1" />
    <inkscape:path-effect
       effect="bspline"
       id="path-effect30"
       is_visible="true"
       lpeversion="1.3"
       weight="33.333333"
       steps="2"
       helper_size="0"
       apply_no_weight="true"
       apply_with_weight="true"
       only_selected="false"
       uniform="false" />
    <inkscape:path-effect
       effect="bspline"
       id="path-effect29"
       is_visible="true"
       lpeversion="1.3"
       weight="33.333333"
       steps="2"
       helper_size="0"
       apply_no_weight="true"
       apply_with_weight="true"
       only_selected="false"
       uniform="false" />
    <inkscape:path-effect
       effect="bspline"
       id="path-effect28"
       is_visible="true"
       lpeversion="1.3"
       weight="33.333333"
       steps="2"
       helper_size="0"
       apply_no_weight="true"
       apply_with_weight="true"
       only_selected="false"
       uniform="false" />
    <inkscape:path-effect
       effect="spiro"
       id="path-effect27"
       is_visible="true"
       lpeversion="1" />
  </defs>
  <sodipodi:namedview
     id="namedview14"
     pagecolor="#ffffff"
     bordercolor="#000000"
     borderopacity="0.25"
     inkscape:showpageshadow="2"
     inkscape:pageopacity="0.0"
     inkscape:pagecheckerboard="0"
     inkscape:deskcolor="#d1d1d1"
     inkscape:zoom="2.71"
     inkscape:cx="-21.586716"
     inkscape:cy="73.247232"
     inkscape:window-width="1920"
     inkscape:window-height="1009"
     inkscape:window-x="-8"
     inkscape:window-y="-8"
     inkscape:window-maximized="1"
     inkscape:current-layer="svg14" />
  <path
     style="fill:#D90000;fill-opacity:0;stroke:#4e1a31;stroke-width:4;stroke-linecap:butt;stroke-dasharray:none;stroke-opacity:1"
     d="m 13.372407,104.1743 c -11.6259812,37.21714 22.290646,49.80428 40.704301,20.93924"
     id="path31"
     sodipodi:nodetypes="cc" />
  <path
     d="m0 0h126v150h-126z"
     fill="none"
     opacity=".6"
     id="path6" />
  <path
     d="m32.81 114.31c-1-6-.25-14-1.49-21.2a24.57 24.57 0 0 0 -1.43-4.42v3.63c0 2.28-2.41 5.81-5.39 5.81a6.5 6.5 0 0 1 -6.23-5.81v-.32h-1.5a4 4 0 0 1 -3.88-3.58v-7.06h-3.07c-3.82 10.14-9.97 13.35-9.26 13.36 8.15.06 11.44-3.57 11.44-3.57-1.78 5.52-12.18 11-11.27 11.17a22.79 22.79 0 0 0 16.62-4.18c1.47 8.53 4.91 22.69 12.09 27.92.68.55.14-2.81.14-3.56.55.36 3.05 4.56 9 7.06.02 0-5.12-4.85-5.77-15.25z"
     id="path12" />
  <path
     d="m109.79 92h-1.35v.3a6.27 6.27 0 0 1 -6.23 5.81c-3 0-5.39-3.53-5.39-5.81v-8a52.05 52.05 0 0 1 -2.42 8.5c-3 8.3-2.58 15.44-3.52 21.53-1.65 12.81-4.71 15.48-4.71 15.48 5.89-2.65 8.12-8.18 8.27-7.59.33 1.26-.61 3.47-.63 5.55a22 22 0 0 0 7.57-9c.52 1.23.55 2.86 1.21 4.1 0 0 8.9-14.46 10-25.8.25-2.64.36-4.81.37-6.66a4.06 4.06 0 0 1 -3.17 1.59z"
     id="path13" />
  <path
     d="m 98.1,51.84 c 0,0 0,4.35 -0.09,9.89 1.046311,-1.538334 2.76094,-2.48843 4.62,-2.56 3.86,0 5.81,2.38 5.81,5.48 V 65 h 2 l 2.93957,-18.364769 c -0.30714,-2.330039 -2.50911,-5.879905 -3.08124,-8.159394 C 106.70833,27.675837 98.46,21.69 92,17 81.61,9.43 69.76,8 63.28,7.87 56.8,8 45,9.43 34.62,17 28.11,21.74 20.438756,26.682137 16.858756,37.432137 16.29058,39.715871 14.871431,43.921152 14.560287,46.253844 L 16.15,65 h 2.13 v -0.3 c -0.161003,-3.094198 2.407402,-5.639253 5.5,-5.45 1.84274,-0.01973 3.587416,0.828533 4.71,2.29 13.652954,-2.140013 26.773391,-6.860791 38.66,-13.91 3,-1.81 -6.53,8 -7.32,9 -0.79,1 14.22,-1.63 34.9,-12.45 3.61,-1.89 3.37,6.57 3.37,7.66 z"
     id="path14"
     inkscape:label="path14"
     sodipodi:nodetypes="cccscccccccccccccccscc" />
  <ellipse
     style="fill:#890000;fill-opacity:0;stroke:#541717;stroke-width:7.26473;stroke-dasharray:none;stroke-opacity:1"
     id="path25"
     cx="63.191593"
     cy="52.557877"
     inkscape:label="path25"
     rx="50.506039"
     ry="47.957821" />
  <path
     style="fill:#541717;fill-opacity:1;stroke:#e5275c;stroke-width:1;stroke-dasharray:none;stroke-opacity:1"
     d="m 12.777417,90.91539 -3.253406,12.5667 c 0,0 -0.363036,3.00558 2.983876,3.87207 3.883682,1.00545 4.587804,-1.84445 4.587804,-1.84445 l 3.286104,-12.692997 z"
     id="path26"
     sodipodi:nodetypes="ccsccc" />
  <path
     style="fill:#D90000;fill-opacity:1;stroke:#000000;stroke-opacity:0"
     d="m 17.278522,94.921564 c -6.499935,0 -11.1500377,0.523594 -11.0701101,-16.881919 0.076281,-16.61143 3.3803181,-16.236162 11.3468621,-16.236162 0.192093,0 0.782417,33.118081 -0.276752,33.118081 z"
     id="path15"
     sodipodi:nodetypes="ssss" />
  <path
     d="m 42.152869,81.275376 c -0.87522,-6.818903 -13.480681,-8.009981 -12.07143,-20.170357 -1.665265,-1.509939 -4.253357,-2.386335 -6.986917,-2.365952 -4.587627,-0.19553 -8.397655,2.433937 -8.15882,5.63076 v 28.587731 c 0.506361,3.323939 4.44552,5.88251 9.241717,6.0027 4.450266,0 9.995644,-3.647079 9.995644,-6.0027 0,0 -2.03262,-12.458768 -2,-10.599677 -1.381296,-2.420078 10.300204,1.512201 9.979806,-1.082505 z"
     fill="#541717"
     id="path9"
     style="fill:#890000;fill-opacity:1;stroke-width:1.238"
     sodipodi:nodetypes="ccccccscc" />
  <use
     x="0"
     y="0"
     xlink:href="#path15"
     id="use16"
     inkscape:transform-center-x="-47.480396"
     inkscape:transform-center-y="-0.4816404"
     transform="matrix(-1,0,0,1,127.06124,0)" />
  <use
     x="0"
     y="0"
     xlink:href="#path9"
     id="use17"
     inkscape:transform-center-x="-35.981437"
     transform="matrix(-1,0,0,1,127.06124,0)" />
  <path
     d="m94.73 44.18c-20.68 10.82-35.73 13.61-34.9 12.46s10.35-10.82 7.32-9a108.83 108.83 0 0 1 -38.66 13.81c-.95 11.81-.92 13.32-.32 19.92.53 5.95 2.61 8.54 3.16 11.74 1.24 7.19.51 15.17 1.49 21.2.65 10.4 5.79 15.25 5.79 15.25 3.18 3 2.47 2.28 6.48 7 7.33 8.66 12.1 12.44 17 12.41 5.14 0 12.23-7.19 14.71-9.41s5.36-5.53 9.4-9.8c0 0 3.06-2.67 4.71-15.48.94-6.09.49-13.23 3.52-21.53 3-8.14 2.71-11.46 2.71-11.46 1-8.54 1-29.48 1-29.48-.04-1.06.2-9.52-3.41-7.63z"
     fill="#000000"
     id="path7" />
</svg>
